<svg xmlns="http://www.w3.org/2000/svg" viewBox="0 0 100 100" fill="none">
  <!-- Knight Chess Piece Icon -->
  <path d="M30 20 L35 15 L40 20 L45 18 L50 20 L55 18 L60 20 L65 15 L70 20 L70 30 L65 35 L60 40 L55 45 L50 50 L45 55 L40 60 L35 65 L30 70 L30 80 L35 85 L40 80 L45 85 L50 80 L55 85 L60 80 L65 85 L70 80 L70 70 L65 65 L60 60 L55 55 L50 50 L45 45 L40 40 L35 35 L30 30 Z" 
        fill="#8B5CF6" 
        stroke="#6D28D9" 
        stroke-width="2"/>
  <!-- Knight head detail -->
  <path d="M40 25 L45 22 L50 25 L50 30 L45 32 L40 30 Z" fill="#A78BFA"/>
  <!-- Eye -->
  <circle cx="45" cy="28" r="2" fill="#1F2937"/>
  <!-- Mane -->
  <path d="M35 30 Q30 25 25 30" stroke="#6D28D9" stroke-width="2" fill="none" stroke-linecap="round"/>
  <path d="M55 30 Q60 25 65 30" stroke="#6D28D9" stroke-width="2" fill="none" stroke-linecap="round"/>
</svg>

